<?xml version="1.0" encoding="UTF-8" standalone="no"?>
<svg width="32" height="32" viewport-fill="#FFFFFF" style="background-color: #FFFFFF; stroke-width: 0px;" xmlns="http://www.w3.org/2000/svg">
<path d="M8.402985 11.821899C8.398641 11.847941 8.396464 11.86202 8.389954 11.900024 8.383443 11.938029 8.378032 12.003235 8.363922 12.049927 8.3498125 12.096619 8.316152 12.132426 8.305298 12.180176 8.294444 12.227925 8.300969 12.279988 8.298798 12.336426 8.296626 12.392863 8.291183 12.459086 8.292267 12.518799 8.29335 12.578511 8.298782 12.623047 8.305298 12.694702 8.311813 12.766357 8.318334 12.852132 8.33136 12.94873 8.344386 13.045329 8.361745 13.159241 8.383453 13.274292 8.405162 13.389343 8.435557 13.543498 8.461609 13.639038 8.48766 13.734578 8.518056 13.779134 8.539764 13.847534 8.561473 13.915935 8.569066 13.990825 8.591858 14.049438 8.61465 14.108052 8.636353 14.132996 8.676514 14.199219 8.716675 14.265442 8.779637 14.377299 8.832825 14.446777 8.886012 14.516255 8.946793 14.570496 8.995636 14.616089 9.044479 14.661682 9.064015 14.674744 9.125885 14.720337 9.187755 14.76593 9.287618 14.839722 9.366852 14.889648 9.446086 14.939575 9.53508 14.989502 9.601288 15.019897 9.667496 15.050293 9.715256 15.05249 9.764099 15.0720215 9.8129425 15.091553 9.841161 15.115376 9.894348 15.137085 9.9475355 15.158793 10.013753 15.1848955 10.083221 15.2022705 10.15269 15.2196455 10.242778 15.232646 10.311157 15.241333 10.379537 15.25002 10.427292 15.252217 10.4935 15.254395 10.559708 15.256572 10.640025 15.250061 10.708405 15.254395 10.776784 15.258728 10.798492 15.277141 10.903778 15.2803955 11.009064 15.28365 11.235916 15.285869 11.340118 15.273926 11.444321 15.261983 11.476888 15.227193 11.528992 15.20874 11.581096 15.190288 11.601726 15.179484 11.6527405 15.163208 11.703755 15.146932 11.7547655 15.136047 11.835083 15.111084 11.9154005 15.086121 12.056493 15.036235 12.134644 15.013428 12.212794 14.990621 12.247543 14.988362 12.303986 14.974243 12.360428 14.960124 12.404918 14.959106 12.473297 14.928711 12.5416765 14.898315 12.646968 14.836385 12.714264 14.79187 12.78156 14.747355 12.820633 14.708293 12.877075 14.661621 12.933517 14.614949 13.012756 14.555257 13.0529175 14.511841 13.093079 14.468425 13.078969 14.460815 13.118042 14.401123 13.157115 14.341431 13.2439375 14.228577 13.2873535 14.153687 13.33077 14.078796 13.348145 14.013672 13.37854 13.951782 13.408936 13.889893 13.450191 13.84967 13.469727 13.782349 13.489263 13.715027 13.478394 13.62384 13.495758 13.547852 13.513123 13.471863 13.558716 13.381775 13.573914 13.326416 13.589111 13.271057 13.578262 13.255859 13.586945 13.215698 13.595627 13.175537 13.615153 13.128865 13.626007 13.085449 13.636861 13.042033 13.643387 12.992106 13.652069 12.9552 13.660751 12.918294 13.67159 12.940002 13.678101 12.864014 13.684611 12.788025 13.691132 12.5980425 13.691132 12.499268 13.691132 12.400493 13.680272 12.325643 13.678101 12.271362 13.675929 12.217082 13.683522 12.211589 13.678101 12.173584 13.672679 12.135579 13.653163 12.085673 13.645569 12.043335 13.637975 12.000997 13.635798 11.947774 13.632538 11.919556 13.629277 11.891337 13.630351 11.887044 13.626007 11.874023 13.621663 11.861003 13.610814 11.858806 13.606476 11.841431 13.602138 11.824056 13.605403 11.789307 13.599976 11.769775 13.594548 11.750244 13.582601 11.74052 13.573914 11.724243 13.565227 11.707967 13.551106 11.690572 13.547852 11.672119 13.544597 11.6536665 13.559804 11.627645 13.554382 11.613525 13.548961 11.599406 13.51532 11.587402 13.51532 11.587402 13.51532 11.587402 13.525065 11.588481 13.52832 11.587402 13.531575 11.586324 13.534851 11.580933 13.534851 11.580933 13.534851 11.580933 13.52182 11.580933 13.52182 11.580933 13.52182 11.580933 13.52182 11.574463 13.52182 11.574463 13.52182 11.574463 13.508789 11.574463 13.508789 11.574463 13.508789 11.574463 13.512044 11.5668335 13.508789 11.561401 13.505534 11.555969 13.493602 11.548381 13.489258 11.54187 13.484914 11.535359 13.492497 11.533203 13.482727 11.522339 13.472957 11.511475 13.449081 11.490804 13.430634 11.476685 13.412186 11.462565 13.391576 11.454997 13.37204 11.437622 13.352504 11.420247 13.353577 11.403911 13.313416 11.372437 13.273254 11.340962 13.186427 11.279155 13.131073 11.248779 13.075719 11.218404 13.046417 11.208638 12.981293 11.190186 12.916168 11.171733 12.815221 11.151103 12.740326 11.138062 12.665431 11.12502 12.589452 11.117371 12.531921 11.111938 12.474391 11.106506 12.448329 11.1119795 12.395142 11.105469 12.341954 11.098958 12.279007 11.082642 12.212799 11.072876 12.146591 11.06311 12.063019 11.055562 11.997894 11.046875 11.93277 11.038188 11.934937 11.025105 11.822052 11.020752 11.7091675 11.016398 11.435643 11.018575 11.320587 11.020752 11.205531 11.022929 11.195755 11.031636 11.131714 11.033813 11.067673 11.035991 11.005803 11.037068 10.93634 11.033813 10.866878 11.030559 10.806107 11.017537 10.714935 11.014282 10.623764 11.011027 10.465291 11.0077715 10.389313 11.014282 10.313334 11.020793 10.323105 11.027303 10.259064 11.053345 10.195023 11.079387 10.079961 11.1379595 10.005066 11.170532 9.930171 11.203105 9.857452 11.233582 9.809692 11.248779 9.761932 11.263977 9.741298 11.257385 9.718506 11.261719 9.695714 11.266052 9.690308 11.2682495 9.672943 11.27478 9.655579 11.281311 9.645798 11.294393 9.614319 11.300903 9.58284 11.307414 9.515549 11.305176 9.48407 11.313843 9.452591 11.32251 9.463435 11.339864 9.425446 11.352905 9.387456 11.365947 9.303889 11.379048 9.256134 11.39209 9.208379 11.405131 9.172566 11.420308 9.138916 11.431152 9.105266 11.441997 9.072682 11.450643 9.05423 11.457153 9.035777 11.463664 9.033626 11.456096 9.028198 11.470215 9.022771 11.484334 9.0216675 11.54187 9.0216675 11.54187" fill="none" stroke="#FF527A" stroke-opacity="1.000000" stroke-width="1" stroke-linecap="round" />
<path d="M13.880005 11.346436C13.925588 11.350789 13.9505415 11.355164 14.016754 11.359497 14.082967 11.363831 14.199132 11.37028 14.277283 11.372437 14.355433 11.374593 14.396657 11.382202 14.485657 11.372437 14.5746565 11.362671 14.73204 11.326863 14.811279 11.313843 14.890518 11.300822 14.906819 11.298645 14.96109 11.294312 15.015361 11.289978 15.076121 11.292175 15.136902 11.287842 15.197682 11.283508 15.276927 11.271565 15.325775 11.268311 15.374623 11.265056 15.396347 11.271565 15.429993 11.268311 15.463638 11.265056 15.489659 11.254211 15.527649 11.248779 15.565639 11.243347 15.634048 11.232463 15.657928 11.235718 15.681808 11.238973 15.670929 11.268311 15.670929 11.268311" fill="none" stroke="#FF527A" stroke-opacity="1.000000" stroke-width="1" stroke-linecap="round" />
<path d="M16.100769 10.981689C16.102936 10.981689 16.10727 10.981689 16.10727 10.981689 16.10727 10.981689 16.102942 10.964314 16.100769 10.981689 16.098597 10.999064 16.095327 11.043599 16.094238 11.0859375 16.09315 11.128276 16.096405 11.156474 16.094238 11.235718 16.092072 11.314961 16.08666 11.471293 16.081238 11.561401 16.075815 11.651509 16.064962 11.696045 16.061707 11.776367 16.05845 11.856689 16.056284 11.964091 16.061707 12.043335 16.06713 12.122579 16.084473 12.185608 16.094238 12.251831 16.104004 12.318054 16.109446 12.385315 16.1203 12.440674 16.131155 12.496033 16.147425 12.538391 16.159363 12.583984 16.1713 12.629578 16.179983 12.665385 16.191925 12.714233 16.203867 12.763082 16.202795 12.807597 16.231018 12.877075 16.259241 12.946553 16.330877 13.062724 16.361267 13.1311035 16.391657 13.199483 16.388397 13.24176 16.41336 13.2873535 16.438324 13.332947 16.47197 13.350383 16.511047 13.404663 16.550125 13.458943 16.616348 13.554423 16.647827 13.613037 16.679306 13.671651 16.67713 13.717265 16.69992 13.756348 16.722712 13.79543 16.759613 13.814961 16.784576 13.847534 16.80954 13.880107 16.821478 13.914876 16.8497 13.951782 16.877924 13.988688 16.92244 14.0320635 16.953918 14.06897 16.985397 14.105876 17.007101 14.140645 17.038574 14.173218 17.070047 14.2057905 17.111288 14.236186 17.142761 14.264404 17.174234 14.292623 17.195938 14.316487 17.227417 14.342529 17.258896 14.368571 17.279531 14.392436 17.331635 14.420654 17.383738 14.448873 17.471659 14.479268 17.54004 14.511841 17.60842 14.544414 17.676788 14.590027 17.741913 14.616089 17.807037 14.642151 17.875427 14.650838 17.930786 14.668213 17.986145 14.685588 18.027395 14.705139 18.074066 14.720337 18.120737 14.735535 18.168488 14.746379 18.210815 14.759399 18.253143 14.77242 18.283533 14.785441 18.328033 14.798462 18.372534 14.811482 18.42897 14.824504 18.477814 14.837524 18.526657 14.850545 18.57225 14.861389 18.621094 14.876587 18.669937 14.891785 18.711176 14.911336 18.770874 14.928711 18.830572 14.946086 18.927176 14.967814 18.979279 14.980835 19.031382 14.993855 19.024881 15.002502 19.083496 15.006836 19.14211 15.011169 19.281036 15.010091 19.330963 15.006836 19.38089 15.003581 19.36135 14.992737 19.383057 14.987305 19.404764 14.981873 19.430817 14.980754 19.461212 14.974243 19.491608 14.967732 19.518759 14.965596 19.56543 14.948242 19.6121 14.930888 19.69457 14.892903 19.741241 14.870117 19.787912 14.847331 19.806381 14.833232 19.845459 14.811523 19.884537 14.789815 19.940973 14.762675 19.975708 14.739868 20.010443 14.717061 20.016962 14.700745 20.053864 14.674683 20.090765 14.648621 20.153696 14.611714 20.197113 14.583496 20.24053 14.555278 20.277456 14.530334 20.314362 14.505371 20.351267 14.480408 20.377304 14.460856 20.418549 14.433716 20.459793 14.406575 20.524923 14.372925 20.561829 14.342529 20.598734 14.312134 20.616104 14.276306 20.639984 14.251343 20.663864 14.226379 20.683401 14.2144575 20.705109 14.192749 20.726816 14.171041 20.744186 14.143901 20.770233 14.121094 20.79628 14.098287 20.831 14.085225 20.86139 14.055908 20.891779 14.026591 20.930868 13.974487 20.952576 13.94519 20.974283 13.915894 20.97644 13.900757 20.991638 13.880127 21.006836 13.859497 21.030737 13.839864 21.043762 13.821411 21.056787 13.8029585 21.056772 13.785686 21.069794 13.769409 21.082815 13.753133 21.10669 13.744385 21.121887 13.723755 21.137085 13.703125 21.14144 13.6727705 21.16098 13.64563 21.180521 13.618489 21.219599 13.59023 21.239136 13.560913 21.258673 13.531596 21.263006 13.500122 21.278198 13.469727 21.29339 13.439331 21.32161 13.403503 21.330292 13.37854 21.338974 13.353577 21.325949 13.341655 21.330292 13.319946 21.334635 13.298238 21.341156 13.279765 21.356354 13.248291 21.371552 13.216817 21.408453 13.162578 21.421478 13.1311035 21.434504 13.099629 21.423655 13.084432 21.43451 13.059448 21.445364 13.034465 21.469238 13.019206 21.486603 12.981201 21.503967 12.943196 21.523499 12.873738 21.538696 12.831421 21.553894 12.7891035 21.564764 12.758769 21.57779 12.727295 21.590815 12.695821 21.605997 12.671895 21.616852 12.642578 21.627707 12.613261 21.634232 12.57961 21.642914 12.551392 21.651596 12.523173 21.660263 12.500407 21.668945 12.473267 21.677628 12.446126 21.690664 12.412435 21.695007 12.38855 21.69935 12.364665 21.690668 12.349487 21.695007 12.329956 21.699347 12.310425 21.7167 12.290914 21.721039 12.271362 21.725378 12.251811 21.714523 12.235454 21.721039 12.2126465 21.727554 12.189839 21.751444 12.161641 21.760132 12.1345215 21.76882 12.107402 21.766653 12.078145 21.773163 12.049927 21.779673 12.0217085 21.792685 11.996704 21.799194 11.96521 21.805704 11.933716 21.80571 11.9033 21.812225 11.860962 21.81874 11.818624 21.833944 11.778483 21.838287 11.711182 21.84263 11.64388 21.84263 11.522278 21.838287 11.457153 21.833944 11.392029 21.82525 11.366028 21.812225 11.320435 21.7992 11.274841 21.776413 11.217244 21.760132 11.183594 21.74385 11.149943 21.734076 11.142415 21.714539 11.11853 21.695002 11.0946455 21.661367 11.064168 21.642914 11.040283 21.62446 11.016398 21.622274 10.994751 21.60382 10.97522 21.585367 10.955688 21.55716 10.938293 21.532196 10.923096 21.507233 10.907898 21.481176 10.897054 21.45404 10.884033 21.426905 10.871013 21.394348 10.857991 21.369385 10.844971 21.344421 10.83195 21.329224 10.81895 21.30426 10.805908 21.279297 10.792867 21.24674 10.780843 21.219604 10.766724 21.192469 10.7526045 21.176184 10.734212 21.141449 10.721191 21.106714 10.708171 21.051361 10.698364 21.0112 10.688599 20.971039 10.678833 20.952585 10.670186 20.900482 10.662598 20.84838 10.655009 20.747421 10.648499 20.698578 10.643066 20.649734 10.637634 20.641068 10.637614 20.607422 10.630005 20.573776 10.6223955 20.534693 10.606099 20.496704 10.597412 20.458715 10.588725 20.418564 10.584392 20.379486 10.577881 20.340408 10.57137 20.31217 10.570292 20.262238 10.55835 20.212305 10.546407 20.13742 10.519246 20.079895 10.506226 20.02237 10.493205 19.959412 10.487813 19.917084 10.480225 19.874756 10.472636 19.865 10.465047 19.825928 10.460693 19.786856 10.45634 19.719553 10.457356 19.682648 10.454102 19.645742 10.450847 19.64357 10.444417 19.604492 10.441162 19.565414 10.437907 19.492685 10.440002 19.448181 10.43457 19.403677 10.429138 19.385218 10.416158 19.337463 10.408569 19.28971 10.400981 19.207235 10.397725 19.161652 10.389038 19.116068 10.380351 19.096527 10.362956 19.063965 10.356445 19.031403 10.349935 19.0021 10.354309 18.966278 10.349976 18.930456 10.345642 18.888107 10.334798 18.84903 10.330444 18.809952 10.326091 18.79151 10.324951 18.731812 10.323853 18.672113 10.322754 18.547287 10.319499 18.490845 10.323853 18.434402 10.328206 18.438745 10.341289 18.393158 10.349976 18.34757 10.358663 18.28895 10.356445 18.217316 10.375977 18.145681 10.395508 18.017618 10.449788 17.963348 10.467163 17.909079 10.484538 17.916662 10.475891 17.891693 10.480225 17.866724 10.484558 17.839584 10.488831 17.813538 10.493164 17.78749 10.497498 17.76146 10.504048 17.735413 10.506226 17.709366 10.508403 17.680054 10.504048 17.657257 10.506226 17.63446 10.508403 17.629023 10.512776 17.598633 10.519287 17.568243 10.525798 17.511816 10.540955 17.474915 10.545288 17.438013 10.549622 17.415216 10.543111 17.377228 10.545288 17.33924 10.547465 17.283884 10.551839 17.246979 10.55835 17.210073 10.56486 17.190527 10.575664 17.155792 10.584351 17.121058 10.593038 17.080908 10.599609 17.038574 10.610474 16.99624 10.621338 16.937616 10.636516 16.901794 10.649536 16.865973 10.662557 16.84643 10.677734 16.823639 10.688599 16.800848 10.699463 16.785666 10.708211 16.765045 10.714722 16.744425 10.721232 16.721628 10.718994 16.69992 10.727661 16.678213 10.736328 16.654333 10.755859 16.634796 10.766724 16.61526 10.777588 16.6055 10.781982 16.582703 10.792847 16.559906 10.803711 16.521896 10.814534 16.498016 10.831909 16.474136 10.849284 16.473068 10.850423 16.439423 10.897095 16.405777 10.943767 16.296143 11.111938 16.296143 11.111938" fill="none" stroke="#FF527A" stroke-opacity="1.000000" stroke-width="1" stroke-linecap="round" />
<path d="M13.827881 17.332153C13.827881 17.327799 13.827881 17.319092 13.827881 17.319092 13.827881 17.319092 13.900594 17.376648 13.945099 17.442871 13.989604 17.509094 14.027614 17.62091 14.09491 17.71643 14.162206 17.81195 14.27507 17.942179 14.348877 18.015991 14.422684 18.089804 14.455256 18.111532 14.53775 18.159302 14.620244 18.207071 14.761353 18.27006 14.843842 18.302612 14.926331 18.335165 14.972987 18.345947 15.032684 18.354614 15.0923815 18.363281 15.162949 18.352438 15.202026 18.354614 15.241104 18.35679 15.247615 18.3655 15.267151 18.367676 15.286687 18.369852 15.308391 18.369852 15.319244 18.367676 15.330098 18.3655 15.323593 18.363302 15.332275 18.354614 15.340958 18.345926 15.3463745 18.331827 15.371338 18.315552 15.396301 18.299276 15.429952 18.302551 15.482056 18.256958 15.53416 18.211365 15.605809 18.13861 15.68396 18.041992 15.762111 17.945374 15.892349 17.761902 15.950958 17.677246 16.009567 17.59259 16.035614 17.534058 16.035614 17.534058" fill="none" stroke="#000000" stroke-opacity="1.000000" stroke-width="1" stroke-linecap="round" />
<path d="M7.660553 6.2336426C7.6540427 6.266195 7.6562195 6.2694297 7.6410217 6.331299 7.625824 6.393168 7.5986733 6.5082397 7.5693665 6.6048584 7.5400596 6.701477 7.5107675 6.780741 7.4651794 6.9110107 7.4195914 7.0412803 7.3338265 7.249695 7.2958374 7.3864746 7.2578483 7.5232544 7.254608 7.5808105 7.2372437 7.7316895 7.219879 7.8825684 7.206848 8.14738 7.1916504 8.291748 7.1764526 8.436116 7.1579947 8.494771 7.146057 8.5979 7.1341195 8.70103 7.126536 8.817159 7.1200256 8.910522 7.1135154 9.003886 7.1091666 9.038676 7.1069946 9.158081 7.1048226 9.277486 7.1048226 9.520589 7.1069946 9.626953 7.1091666 9.733317 7.1178536 9.748494 7.1200256 9.796265 7.1221976 9.844035 7.115687 9.867961 7.1200256 9.913574 7.1243644 9.9591875 7.139547 10.017842 7.146057 10.069946 7.1525674 10.12205 7.1547446 10.17627 7.159088 10.226196 7.1634316 10.276123 7.169947 10.324992 7.172119 10.369507 7.174291 10.4140215 7.169947 10.455302 7.172119 10.493286 7.174291 10.53127 7.1808114 10.575704 7.18515 10.597412 7.189489 10.619121 7.1916404 10.617024 7.1981506 10.623535 7.204661 10.630046 7.217697 10.634318 7.2242126 10.636475 7.230728 10.638631 7.2068534 10.640808 7.2372437 10.636475 7.267634 10.632141 7.3142953 10.63326 7.406555 10.610474 7.498815 10.5876875 7.6421 10.546428 7.790802 10.499756 7.939504 10.453084 8.143555 10.38798 8.298767 10.330444 8.4539795 10.272908 8.602681 10.194702 8.722076 10.154541 8.841472 10.11438 8.909851 10.110107 9.015137 10.089478 9.120422 10.068848 9.22137 10.047058 9.35379 10.030762 9.486211 10.014465 9.694606 10.003642 9.809662 9.991699 9.924718 9.979756 9.92039 9.964539 10.044128 9.959106 10.167867 9.953674 10.409902 9.961263 10.5520935 9.959106 10.694285 9.95695 10.758342 9.948323 10.897278 9.946167 11.036214 9.944011 11.385712 9.946167 11.385712 9.946167 11.385712 9.946167 11.3868 9.966736 11.385712 9.900513 11.384624 9.83429 11.367244 9.682353 11.379181 9.548828 11.391118 9.415303 11.431285 9.263286 11.457336 9.099365 11.483388 8.935445 11.510529 8.757446 11.535492 8.565308 11.560455 8.373169 11.583237 8.107178 11.607117 7.946533 11.630997 7.7858887 11.658147 7.6817627 11.678772 7.6014404 11.699397 7.521118 11.7308655 7.4645996 11.7308655 7.4645996 11.7308655 7.4645996 11.740642 7.4797363 11.7438965 7.4906006 11.747151 7.501465 11.747142 7.5210977 11.750397 7.529785 11.753652 7.5384727 11.763428 7.5427246 11.763428 7.5427246 11.763428 7.5427246 11.759084 7.5329995 11.763428 7.5167236 11.767772 7.5004478 11.778636 7.4613442 11.78949 7.4450684 11.8003435 7.4287925 11.81987 7.423401 11.828552 7.4190674 11.8372345 7.414734 11.828557 7.4104004 11.841583 7.4190674 11.8546095 7.4277344 11.887172 7.432007 11.906708 7.4710693 11.926244 7.510132 11.9327545 7.548136 11.958801 7.6534424 11.984848 7.7587485 12.020656 7.9465737 12.062988 8.102905 12.105321 8.259236 12.169383 8.452474 12.212799 8.591431 12.256215 8.730388 12.289841 8.8498125 12.323486 8.9366455 12.357132 9.0234785 12.388621 9.065755 12.414673 9.112427 12.440724 9.159099 12.455917 9.190613 12.479797 9.216675 12.503677 9.242737 12.541672 9.257955 12.557953 9.268799 12.574234 9.279643 12.574229 9.275228 12.577484 9.281738 12.580739 9.288249 12.57314 9.299174 12.577484 9.307861 12.581828 9.316548 12.592692 9.325175 12.603546 9.333862 12.6144 9.342549 12.631755 9.344788 12.642609 9.359985 12.653462 9.375183 12.655644 9.394653 12.668671 9.425049 12.681697 9.455444 12.702316 9.511963 12.720764 9.542358 12.739212 9.572754 12.765248 9.590068 12.779358 9.607422 12.7934675 9.624776 12.796733 9.63562 12.80542 9.646484 12.814107 9.657349 12.795665 9.671509 12.831482 9.672607 12.867299 9.673706 12.933492 9.689982 13.020325 9.653076 13.107158 9.61617 13.229823 9.519572 13.352478 9.451172 13.475133 9.3827715 13.637944 9.291524 13.756256 9.242676 13.874568 9.193828 13.98203 9.17218 14.062347 9.158081 14.142665 9.143982 14.195831 9.153748 14.238159 9.158081 14.280487 9.162415 14.281581 9.173238 14.316315 9.184082 14.351048 9.194926 14.39772 9.21228 14.446564 9.223145 14.495407 9.234009 14.53448 9.236247 14.609375 9.249268 14.68427 9.262288 14.79716 9.290425 14.895935 9.30127 14.99471 9.312114 15.10434 9.312154 15.202026 9.314331 15.299713 9.316508 15.403905 9.30782 15.482056 9.314331 15.560206 9.320842 15.614487 9.342529 15.670929 9.353394 15.727371 9.364258 15.757756 9.373006 15.820709 9.379517 15.883662 9.386027 15.965068 9.3903 16.048645 9.392456 16.132223 9.394612 16.240768 9.393535 16.322174 9.392456 16.40358 9.391377 16.479553 9.389241 16.537079 9.385986 16.594604 9.382731 16.641275 9.37618 16.667328 9.372925 16.69338 9.36967 16.69339 9.366455 16.69339 9.366455 16.69339 9.366455 16.660828 9.366455 16.660828 9.366455 16.660828 9.366455 16.673859 9.366455 16.673859 9.366455 16.673859 9.366455 16.668417 9.367574 16.667328 9.359985 16.666239 9.352397 16.662985 9.3914795 16.667328 9.320923 16.67167 9.250366 16.671682 9.089722 16.69339 8.9366455 16.715097 8.783569 16.734625 8.660828 16.797577 8.402466 16.860529 8.144104 16.99621 7.6426597 17.071106 7.3864746 17.146002 7.1302896 17.202444 6.978251 17.246948 6.8653564 17.291452 6.752462 17.322937 6.739502 17.338135 6.7091064 17.353333 6.678711 17.338135 6.6829834 17.338135 6.6829834 17.338135 6.6829834 17.331604 6.6829834 17.331604 6.6829834 17.331604 6.6829834 17.327261 6.6894736 17.331604 6.722046 17.335947 6.754618 17.341385 6.792643 17.357666 6.878418 17.373947 6.964193 17.40867 7.1042686 17.42929 7.2366943 17.449911 7.36912 17.46293 7.5383706 17.481384 7.6729736 17.499838 7.8075767 17.51504 7.919474 17.540009 8.044312 17.564978 8.169148 17.605143 8.316711 17.631195 8.421997 17.657248 8.527283 17.683298 8.607625 17.69632 8.676025 17.709341 8.744426 17.700638 8.778117 17.70932 8.832397 17.718002 8.886678 17.735388 8.943095 17.748413 9.001709 17.761438 9.060323 17.780966 9.1449995 17.787476 9.184082 17.793985 9.223165 17.783133 9.225342 17.787476 9.236206 17.791819 9.24707 17.810282 9.242757 17.813538 9.249268 17.816793 9.255778 17.807007 9.268758 17.807007 9.275269 17.807007 9.281779 17.79725 9.281819 17.813538 9.28833 17.829824 9.294841 17.856964 9.305644 17.904724 9.314331 17.952484 9.323018 18.013266 9.327434 18.100098 9.340454 18.18693 9.353475 18.320435 9.375102 18.42572 9.392456 18.531006 9.40981 18.628698 9.425029 18.731812 9.44458 18.834925 9.464131 18.935862 9.496724 19.044403 9.509766 19.152945 9.522807 19.28103 9.516316 19.383057 9.522827 19.485083 9.529338 19.574066 9.531474 19.656555 9.548828 19.739044 9.566182 19.79984 9.603068 19.87799 9.626953 19.95614 9.650838 20.0625 9.672587 20.125458 9.692139 20.188416 9.71169 20.206888 9.729065 20.255737 9.744263 20.304586 9.75946 20.362112 9.768127 20.418549 9.783325 20.474985 9.798523 20.54335 9.824605 20.59436 9.835449 20.64537 9.846293 20.696386 9.841878 20.72461 9.848389 20.752832 9.854899 20.728968 9.870158 20.763702 9.874512 20.798437 9.878865 20.933014 9.874512 20.933014 9.874512 20.933014 9.874512 20.935186 9.818095 20.933014 9.7052 20.930841 9.592305 20.89176 9.403401 20.919983 9.197144 20.948206 8.990886 21.045914 8.710815 21.102356 8.467651 21.158798 8.224487 21.230417 7.8836265 21.258636 7.738159 21.286856 7.592692 21.267324 7.619812 21.271667 7.5948486 21.27601 7.5698853 21.278189 7.5872803 21.284698 7.588379 21.291208 7.5894775 21.293365 7.584086 21.31073 7.6014404 21.328094 7.618795 21.355234 7.636068 21.388885 7.692505 21.422537 7.748942 21.452936 7.841268 21.512634 7.9400635 21.572332 8.038859 21.68303 8.161519 21.74707 8.285278 21.811111 8.409038 21.852377 8.526306 21.896881 8.682617 21.941385 8.838928 21.98371 9.076599 22.0141 9.223145 22.044489 9.36969 22.066198 9.480469 22.079224 9.56189 22.092249 9.643311 22.087912 9.667175 22.092255 9.71167 22.096598 9.756165 22.098776 9.796285 22.105286 9.828857 22.111795 9.86143 22.128061 9.887553 22.131317 9.9071045 22.134573 9.926656 22.124817 9.946167 22.124817 9.946167 22.124817 9.946167 22.129135 9.930969 22.137817 9.946167 22.1465 9.961365 22.150858 9.99176 22.17691 10.0373535 22.202963 10.082947 22.231176 10.144836 22.294128 10.219727 22.35708 10.294617 22.47973 10.411804 22.554626 10.486694 22.629522 10.561584 22.66535 10.605021 22.7435 10.669067 22.82165 10.733113 22.96166 10.828633 23.02353 10.870972 23.085398 10.91331 23.071299 10.905721 23.114716 10.923096 23.158133 10.940471 23.235184 10.955668 23.284027 10.97522 23.33287 10.994771 23.38498 11.027385 23.407776 11.040405 23.430573 11.053426 23.420807 11.053345 23.420807 11.053345 23.420807 11.053345 23.375214 11.053345 23.375214 11.053345 23.375214 11.053345 23.407776 11.053345 23.407776 11.053345 23.407776 11.053345 23.407776 10.994751 23.407776 10.994751" fill="none" stroke="#000000" stroke-opacity="1.000000" stroke-width="1" stroke-linecap="round" />
<path d="M23.531494 11.248779C23.50762 11.257446 23.47289 11.242208 23.45987 11.27478 23.446848 11.307353 23.458796 11.366048 23.45337 11.444214 23.447943 11.52238 23.440332 11.611348 23.427307 11.743774 23.414282 11.876201 23.382812 12.068339 23.375214 12.23877 23.367615 12.4092 23.386057 12.578552 23.381714 12.766357 23.37737 12.954163 23.37086 13.192993 23.349152 13.365601 23.327444 13.538208 23.289454 13.643514 23.251465 13.802002 23.213476 13.96049 23.167887 14.128743 23.121216 14.316528 23.074545 14.504313 23.031134 14.737671 22.971436 14.928711 22.911737 15.119751 22.83901 15.2369795 22.763031 15.462769 22.687052 15.688558 22.59697 16.031595 22.515564 16.283447 22.434158 16.5353 22.36143 16.763285 22.274597 16.973877 22.187765 17.18447 22.072718 17.386332 21.994568 17.546997 21.916418 17.707663 21.863226 17.815186 21.805695 17.937866 21.748163 18.060547 21.696054 18.190817 21.649384 18.283081 21.602713 18.375345 21.577765 18.421997 21.525665 18.491455 21.473566 18.560913 21.403006 18.618408 21.336792 18.69983 21.270578 18.78125 21.171804 18.9246 21.128387 18.97998 21.08497 19.03536 21.087149 19.021261 21.076294 19.032104 21.06544 19.042948 21.063263 19.045044 21.063263 19.045044 21.063263 19.045044 21.073034 19.042868 21.076294 19.045044 21.079554 19.04722 21.077398 19.053751 21.082825 19.058105 21.088251 19.06246 21.080637 19.060324 21.108856 19.071167 21.137075 19.08201 21.19135 19.112326 21.252136 19.123169 21.312922 19.134012 21.37263 19.139486 21.473572 19.13623 21.574514 19.132975 21.764444 19.11558 21.857788 19.103638 21.951132 19.091696 21.97936 19.072165 22.03363 19.064575 22.0879 19.056986 22.132395 19.064615 22.18341 19.058105 22.234426 19.051596 22.281107 19.033121 22.339722 19.025513 22.398336 19.017904 22.47757 19.023294 22.535095 19.012451 22.59262 19.001608 22.63169 18.977804 22.684875 18.96045 22.738062 18.943094 22.788004 18.927877 22.854218 18.908325 22.920431 18.888773 23.011602 18.868103 23.082153 18.84314 23.152704 18.818176 23.2276 18.778076 23.277527 18.758545 23.327454 18.739014 23.351324 18.735739 23.381714 18.725952 23.412104 18.716166 23.427307 18.708517 23.45987 18.69983 23.492432 18.691141 23.5315 18.682495 23.577087 18.673828 23.622675 18.665161 23.686728 18.657593 23.733398 18.647827 23.78007 18.638062 23.81153 18.625021 23.857117 18.615234 23.902704 18.605448 23.977621 18.5978 24.006927 18.589111 24.036234 18.580423 24.022104 18.571798 24.032959 18.56311 24.043814 18.554422 24.059027 18.54242 24.072052 18.536987 24.085077 18.531555 24.111115 18.530518 24.111115 18.530518 24.111115 18.530518 24.104614 18.517456 24.104614 18.517456 24.104614 18.517456 24.137177 18.517456 24.137177 18.517456 24.137177 18.517456 24.111115 18.510986 24.111115 18.510986 24.111115 18.510986 24.143677 18.510986 24.143677 18.510986 24.143677 18.510986 24.111115 18.510986 24.111115 18.510986" fill="none" stroke="#000000" stroke-opacity="1.000000" stroke-width="1" stroke-linecap="round" />
<path d="M6.89859 11.190186C6.9029336 11.190186 6.911621 11.190186 6.911621 11.190186 6.911621 11.190186 6.909434 11.198873 6.9050903 11.281372 6.900747 11.363872 6.8888144 11.526692 6.885559 11.685181 6.8823037 11.843669 6.8812156 12.0477705 6.885559 12.2323 6.8899026 12.416829 6.8985953 12.638225 6.911621 12.792358 6.924647 12.946492 6.950689 13.007283 6.9637146 13.1571045 6.9767404 13.306926 6.9789224 13.475261 6.9897766 13.691284 7.000631 13.907308 7.0049644 14.194905 7.028839 14.453247 7.052714 14.711589 7.0961204 14.998169 7.133026 15.241333 7.169932 15.484497 7.2003427 15.723348 7.2502747 15.912231 7.3002067 16.101114 7.379435 16.22701 7.432617 16.374634 7.4857993 16.522257 7.522695 16.667704 7.5693665 16.797974 7.616038 16.928244 7.6713967 17.036825 7.7126465 17.15625 7.753896 17.275675 7.778875 17.39512 7.816864 17.514526 7.854853 17.633932 7.902593 17.766317 7.9405823 17.87268 7.9785714 17.979044 8.005722 18.04415 8.0448 18.15271 8.083878 18.26127 8.131633 18.410055 8.175049 18.524048 8.218465 18.63804 8.274907 18.757425 8.305298 18.83667 8.335689 18.915915 8.337855 18.94633 8.357391 18.999512 8.376927 19.052694 8.3932085 19.08846 8.422516 19.155762 8.451823 19.223063 8.503926 19.34253 8.533234 19.40332 8.562541 19.464111 8.57665 19.490112 8.598358 19.520508 8.620067 19.550903 8.652629 19.572653 8.663483 19.585693 8.674336 19.598734 8.659144 19.592245 8.663483 19.598755 8.667821 19.605265 8.689514 19.624756 8.689514 19.624756 8.689514 19.624756 8.691696 19.628012 8.650452 19.624756 8.609207 19.6215 8.52888 19.60848 8.442047 19.605225 8.355214 19.601969 8.230397 19.60848 8.129456 19.605225 8.028514 19.601969 7.9666443 19.58895 7.8363953 19.585693 7.7061462 19.582438 7.4619293 19.594381 7.3479614 19.585693 7.2339935 19.577005 7.2133737 19.553122 7.152588 19.53357 7.091802 19.514017 7.031006 19.49119 6.983246 19.468384 6.935486 19.445578 6.9105277 19.418436 6.866028 19.396729 6.821528 19.375021 6.765091 19.360922 6.7162476 19.338135 6.667404 19.315348 6.6109567 19.280619 6.5729675 19.26001 6.5349784 19.2394 6.512192 19.225342 6.488312 19.214478 6.464432 19.203613 6.4296875 19.194824 6.4296875 19.194824 6.4296875 19.194824 6.4296875 19.207886 6.4296875 19.207886" fill="none" stroke="#000000" stroke-opacity="1.000000" stroke-width="1" stroke-linecap="round" />
<path d="M8.689514 19.344727C8.706889 19.344727 8.709076 19.331705 8.741638 19.344727 8.7742 19.357748 8.829534 19.394632 8.884888 19.422852 8.940242 19.45107 9.020574 19.487997 9.073761 19.514038 9.126948 19.54008 9.15625 19.54653 9.20401 19.579102 9.25177 19.611673 9.301707 19.668213 9.360321 19.709473 9.418935 19.750732 9.493825 19.796265 9.555695 19.82666 9.617564 19.857056 9.666412 19.870138 9.731537 19.891846 9.796661 19.913553 9.867208 19.935202 9.946442 19.95691 10.025676 19.978617 10.0908 20.00472 10.20694 20.022095 10.323079 20.039469 10.505432 20.041626 10.64328 20.061157 10.781128 20.080688 10.892924 20.115396 11.034027 20.139282 11.17513 20.163168 11.35965 20.174072 11.489899 20.204468 11.620148 20.234863 11.706981 20.29126 11.815521 20.321655 11.924062 20.35205 12.0412855 20.360779 12.141144 20.38684 12.241002 20.412903 12.330012 20.45632 12.414673 20.478027 12.499333 20.499735 12.575302 20.501892 12.649109 20.51709 12.722916 20.532288 12.745712 20.551859 12.857513 20.569214 12.969315 20.586569 13.175552 20.612549 13.319916 20.621216 13.464279 20.629883 13.559799 20.630981 13.723694 20.621216 13.8875885 20.61145 14.142644 20.57782 14.303284 20.562622 14.463923 20.547424 14.554021 20.54956 14.6875305 20.53003 14.82104 20.510498 14.971919 20.468222 15.10434 20.445435 15.23676 20.422647 15.373515 20.39982 15.482056 20.39331 15.590596 20.3868 15.663325 20.404196 15.755585 20.406372 15.847844 20.408548 15.949864 20.399862 16.035614 20.406372 16.121363 20.412882 16.183249 20.436747 16.27008 20.445435 16.356913 20.454123 16.474121 20.45632 16.55661 20.458496 16.6391 20.460672 16.695547 20.456339 16.765015 20.458496 16.834482 20.460653 16.907206 20.464926 16.97342 20.471436 17.039633 20.477945 17.092825 20.491049 17.162292 20.497559 17.23176 20.504068 17.232843 20.510498 17.390228 20.510498 17.547613 20.510498 17.925333 20.51709 18.106598 20.497559 18.287863 20.478027 18.366018 20.44108 18.477814 20.39331 18.58961 20.345541 18.690542 20.257608 18.777374 20.210938 18.864206 20.164267 18.904379 20.159952 18.99881 20.113281 19.09324 20.06661 19.245188 19.979757 19.343964 19.930908 19.44274 19.88206 19.516565 19.859274 19.591461 19.82019 19.666357 19.781107 19.7217 19.732239 19.793335 19.696411 19.86497 19.660583 19.95289 19.63562 20.02127 19.605225 20.089651 19.57483 20.134146 19.545511 20.203613 19.514038 20.27308 19.482565 20.368612 19.4457 20.43808 19.416382 20.507547 19.387064 20.560724 19.375061 20.620422 19.338135 20.68012 19.301208 20.753931 19.22522 20.796265 19.194824 20.838598 19.164429 20.857056 19.154663 20.87442 19.155762 20.891785 19.15686 20.900452 19.201416 20.900452 19.201416" fill="none" stroke="#000000" stroke-opacity="1.000000" stroke-width="1" stroke-linecap="round" />
<path d="M12.753326 20.855713C12.762004 20.860067 12.763077 20.847067 12.779358 20.868774 12.795639 20.890482 12.81519 20.930603 12.851013 20.985962 12.886836 21.04132 12.932424 21.093445 12.994293 21.200928 13.056163 21.30841 13.164703 21.497335 13.222229 21.63086 13.279755 21.764383 13.3134 21.85553 13.339447 22.002075 13.365494 22.14862 13.375255 22.375528 13.3785095 22.510132 13.381764 22.644735 13.366572 22.710917 13.358978 22.809692 13.351384 22.908468 13.349228 23.00834 13.332947 23.102783 13.316666 23.197226 13.290599 23.284079 13.2612915 23.376343 13.231984 23.468607 13.187495 23.578207 13.1571045 23.656372 13.126714 23.734537 13.108256 23.785624 13.078949 23.845337 13.049642 23.90505 13.006226 23.982096 12.981262 24.014648 12.956299 24.047201 12.929169 24.04065 12.929169 24.04065 12.929169 24.04065 12.9552 24.04065 12.9552 24.04065" fill="none" stroke="#000000" stroke-opacity="1.000000" stroke-width="1" stroke-linecap="round" />
<path d="M17.728882 20.679932C17.72236 20.738525 17.732117 20.786255 17.70932 20.855713 17.686523 20.92517 17.643112 20.964233 17.592102 21.09668 17.541092 21.229126 17.439077 21.495157 17.40326 21.65039 17.367441 21.805624 17.390223 21.84788 17.377197 22.028076 17.364172 22.208273 17.333786 22.507935 17.325104 22.731567 17.316422 22.9552 17.303396 23.19401 17.325104 23.369873 17.346811 23.545736 17.420618 23.6934 17.455353 23.786743 17.490088 23.880087 17.507462 23.895203 17.533508 23.929932 17.559555 23.96466 17.592096 23.984253 17.611633 23.995117 17.63117 24.005981 17.650726 23.995117 17.650726 23.995117" fill="none" stroke="#000000" stroke-opacity="1.000000" stroke-width="1" stroke-linecap="round" />
<path d="M8.19458 0.28710938C8.185893 0.28710938 8.1772 0.2849528 8.168518 0.28710938 8.159836 0.28926596 8.156596 0.28920493 8.142487 0.30004883 8.128377 0.31089273 8.125112 0.32828775 8.083862 0.35217285 8.042613 0.37605795 7.9731393 0.4020996 7.894989 0.44335938 7.8168387 0.48461914 7.7050476 0.54762775 7.6149597 0.59973145 7.524872 0.65183514 7.464086 0.67891437 7.3544617 0.75598145 7.2448373 0.8330485 7.0625 0.9731242 6.9572144 1.0621338 6.8519287 1.1511434 6.795471 1.2042847 6.722748 1.2900391 6.6500244 1.3757935 6.589254 1.4865519 6.520874 1.5766602 6.452494 1.6667684 6.3906198 1.7351685 6.3124695 1.8306885 6.234319 1.9262085 6.1366324 2.0368855 6.0519714 2.1497803 5.9673104 2.262675 5.88591 2.409261 5.8045044 2.5080566 5.7230988 2.6068523 5.6351724 2.6546223 5.5635376 2.7425537 5.491903 2.830485 5.438741 2.9433796 5.374695 3.0356445 5.3106484 3.1279094 5.2519836 3.18868 5.1792603 3.2961426 5.106537 3.4036052 5.0349526 3.5393066 4.9383545 3.68042 4.8417563 3.8215332 4.7092996 3.9951782 4.5996704 4.1428223 4.4900413 4.2904663 4.37501 4.431661 4.2805786 4.566284 4.186147 4.700907 4.130768 4.774719 4.033081 4.9505615 3.9353943 5.126404 3.7812908 5.4346313 3.694458 5.621338 3.6076252 5.8080444 3.576131 5.907959 3.512085 6.070801 3.4480388 6.2336426 3.37205 6.4290566 3.3101807 6.5983887 3.2483113 6.7677207 3.227702 6.8664346 3.1408691 7.086792 3.0540364 7.3071494 2.878184 7.690389 2.7891846 7.920532 2.700185 8.150676 2.666565 8.29071 2.6068726 8.467651 2.5471802 8.644592 2.483134 8.815002 2.4310303 8.982178 2.3789265 9.149353 2.3355 9.331746 2.2942505 9.470703 2.253001 9.60966 2.216095 9.685669 2.1835327 9.815918 2.1509705 9.946167 2.1325276 10.105652 2.098877 10.252197 2.0652263 10.398743 2.0163574 10.565999 1.9816284 10.69519 1.9468994 10.824382 1.9100342 10.915547 1.8905029 11.027344 1.8709717 11.13914 1.8828939 11.240051 1.8644409 11.365967 1.8459879 11.491882 1.8362325 11.571147 1.7797852 11.782837 1.7233378 11.994527 1.5963135 12.35496 1.5257568 12.636108 1.4552002 12.917256 1.4041952 13.223308 1.3564453 13.469727 1.3086954 13.7161455 1.2805074 13.894246 1.2392578 14.114624 1.1980082 14.335002 1.1512858 14.566203 1.1089478 14.791992 1.0666097 15.017781 1.0221252 15.262024 0.9852295 15.46936 0.94833374 15.676697 0.9038493 15.868835 0.88757324 16.03601 0.8712972 16.203186 0.88323975 16.339987 0.88757324 16.472412 0.89190674 16.604837 0.90272015 16.718771 0.9135742 16.830566 0.9244283 16.942362 0.94401044 17.031372 0.95269775 17.143188 0.9613851 17.255005 0.9591878 17.372274 0.96569824 17.501465 0.9722087 17.630655 0.98307294 17.741394 0.99176025 17.918335 1.0004476 18.095276 1.0048014 18.34493 1.0178223 18.56311 1.0308431 18.78129 1.0568644 19.079794 1.0698853 19.227417 1.0829061 19.37504 1.0872599 19.380453 1.0959473 19.448853 1.1046346 19.517252 1.1089783 19.562906 1.1220093 19.637817 1.1350403 19.712729 1.1654459 19.844055 1.1741333 19.898315 1.1828207 19.952576 1.1719666 19.946005 1.1741333 19.963379 1.1763 19.980753 1.1806234 19.996033 1.1871338 20.002563 1.1936442 20.009094 1.1741232 19.987366 1.2131958 20.002563 1.2522684 20.017761 1.3314819 20.072042 1.4215698 20.09375 1.5116577 20.115458 1.6408386 20.126303 1.7537231 20.132812 1.8666077 20.139322 1.9762268 20.14042 2.098877 20.132812 2.221527 20.125204 2.3789165 20.096945 2.489624 20.087158 2.6003315 20.077372 2.694743 20.080606 2.7631226 20.074097 2.8315022 20.067587 2.8575642 20.05243 2.8999023 20.048096 2.9422405 20.043762 2.9932659 20.04592 3.0171509 20.048096 3.041036 20.050272 3.0345356 20.056824 3.043213 20.061157 3.0518901 20.06549 3.0648804 20.069763 3.0692139 20.074097 3.0735474 20.07843 3.0692139 20.087158 3.0692139 20.087158 3.0692139 20.087158 3.064911 20.082804 3.0627441 20.087158 3.0605774 20.091513 3.0486145 20.08722 3.0562134 20.113281 3.0638123 20.139343 3.0953166 20.177328 3.1083374 20.24353 3.1213582 20.309732 3.1256611 20.431253 3.1343384 20.510498 3.1430156 20.589743 3.157135 20.637573 3.1604004 20.718994 3.1636658 20.800415 3.1463318 20.903503 3.1539307 20.999023 3.1615295 21.094543 3.192973 21.20636 3.2059937 21.292114 3.2190144 21.377869 3.2212017 21.427795 3.2320557 21.51355 3.2429097 21.599304 3.2646077 21.650309 3.2711182 21.80664 3.2776287 21.962973 3.273285 22.261557 3.2711182 22.451538 3.2689514 22.64152 3.2635396 22.79132 3.2581177 22.946533 3.2526958 23.101746 3.2548726 23.257975 3.2385864 23.382812 3.2223003 23.50765 3.179942 23.592428 3.1604004 23.695557 3.140859 23.798685 3.1289368 23.915833 3.121338 24.001587 3.113739 24.087341 3.120229 24.135172 3.1148071 24.210083 3.1093853 24.284994 3.101827 24.357706 3.0888062 24.45105 3.0757854 24.544394 3.0497131 24.708273 3.0366821 24.770142 3.0236511 24.83201 3.0160522 24.807068 3.01062 24.822266 3.005188 24.837463 3.0051777 24.850464 3.0040894 24.861328 3.003001 24.872192 3.0040894 24.887451 3.0040894 24.887451" fill="none" stroke="#000000" stroke-opacity="1.000000" stroke-width="1" stroke-linecap="round" />
<path d="M24.540955 0.06555176C24.586538 0.10465495 24.619095 0.13942464 24.677704 0.18286133 24.736313 0.22629802 24.811203 0.27514648 24.892609 0.32617188 24.974014 0.37719727 25.065191 0.4065145 25.166138 0.48901367 25.267084 0.5715129 25.378897 0.72021484 25.498291 0.821167 25.617685 0.92211914 25.74466 0.9763997 25.882507 1.0947266 26.020355 1.2130533 26.200552 1.4128011 26.325378 1.5311279 26.450205 1.6494547 26.526184 1.6896362 26.63147 1.8046875 26.736755 1.9197388 26.84855 2.084676 26.957092 2.2214355 27.065634 2.358195 27.1948 2.4786987 27.282715 2.6252441 27.37063 2.7717896 27.385818 2.8987834 27.484589 3.100708 27.583359 3.3026326 27.775476 3.631612 27.875336 3.836792 27.975195 4.0419717 28.01319 4.151591 28.08374 4.331787 28.154291 4.5119834 28.231348 4.7084756 28.298645 4.9179688 28.365942 5.127462 28.431076 5.3781533 28.487518 5.588745 28.54396 5.799337 28.580856 5.9947915 28.637299 6.1815186 28.69374 6.3682456 28.764303 6.536499 28.826172 6.7091064 28.88804 6.881714 28.952072 7.059774 29.008514 7.217163 29.064957 7.3745522 29.11381 7.4754233 29.164825 7.6534424 29.215841 7.8314614 29.267935 8.112671 29.314606 8.285278 29.361277 8.457886 29.40361 8.538208 29.444855 8.689087 29.4861 8.839966 29.522995 9.004924 29.562073 9.190552 29.60115 9.37618 29.644587 9.593343 29.679321 9.802856 29.714056 10.01237 29.740088 10.238118 29.770477 10.447632 29.800867 10.6571455 29.818247 10.830892 29.861664 11.059937 29.90508 11.288981 29.983221 11.586345 30.030975 11.821899 30.07873 12.057454 30.11997 12.263753 30.148193 12.473267 30.176416 12.68278 30.18512 12.908549 30.200317 13.0789795 30.215515 13.24941 30.224188 13.369934 30.23938 13.49585 30.254572 13.621765 30.274109 13.696614 30.291473 13.834473 30.308838 13.972331 30.332712 14.176453 30.343567 14.322998 30.354422 14.469543 30.354425 14.581319 30.356598 14.713745 30.35877 14.846171 30.354425 14.974263 30.356598 15.117554 30.35877 15.260844 30.363113 15.445394 30.369629 15.573486 30.376144 15.701579 30.389181 15.784058 30.39569 15.886108 30.4022 15.988159 30.402182 16.096762 30.408691 16.185791 30.415201 16.27482 30.43041 16.334534 30.434753 16.420288 30.439096 16.506042 30.43258 16.614563 30.434753 16.700317 30.436926 16.786072 30.441275 16.859903 30.447784 16.934814 30.454294 17.009726 30.467306 17.03363 30.473816 17.14978 30.480326 17.26593 30.484674 17.466715 30.486847 17.631714 30.48902 17.796713 30.484674 18.02362 30.486847 18.13977 30.48902 18.25592 30.493362 18.258057 30.499878 18.328613 30.506393 18.39917 30.521597 18.469748 30.52594 18.56311 30.530283 18.656473 30.5216 18.798706 30.52594 18.888794 30.53028 18.978882 30.547632 19.022238 30.551971 19.103638 30.55631 19.185038 30.549799 19.316406 30.551971 19.377197 30.554144 19.437988 30.56283 19.42279 30.565002 19.468384 30.567175 19.513977 30.567175 19.618185 30.565002 19.650757 30.56283 19.683329 30.564997 19.661642 30.551971 19.663818 30.538946 19.665995 30.532434 19.657309 30.486847 19.663818 30.44126 19.670328 30.36202 19.698547 30.278442 19.70288 30.194864 19.707214 30.130823 19.691996 29.985382 19.68982 29.839941 19.687643 29.566431 19.687643 29.405792 19.68982 29.245153 19.691996 29.135519 19.705038 29.021545 19.70288 28.907572 19.700724 28.82724 19.681213 28.721954 19.67688 28.616669 19.672546 28.471237 19.680136 28.389832 19.67688 28.308426 19.673624 28.375711 19.660604 28.23352 19.657349 28.09133 19.654093 27.65499 19.655191 27.536682 19.657349 27.418375 19.659506 27.52802 19.663778 27.523682 19.670288 27.519342 19.676798 27.512823 19.685547 27.51065 19.696411 27.508478 19.707275 27.506311 19.7181 27.51065 19.735474 27.51499 19.752848 27.53451 19.756144 27.536682 19.80066 27.538855 19.845175 27.519339 19.895102 27.523682 20.002563 27.528025 20.110025 27.549723 20.334717 27.562744 20.445435 27.575766 20.556152 27.579016 20.574606 27.601807 20.66687 27.624598 20.759134 27.663671 20.901327 27.699493 20.999023 27.735315 21.09672 27.786346 21.173807 27.816742 21.253052 27.847137 21.332296 27.840622 21.377869 27.881866 21.474487 27.923111 21.571106 28.014282 21.72638 28.064209 21.832764 28.114136 21.939148 28.130411 22.01835 28.181427 22.112793 28.232443 22.207235 28.32363 22.323425 28.3703 22.399414 28.416971 22.475403 28.43215 22.525309 28.461456 22.568726 28.490763 22.612143 28.521173 22.633871 28.546143 22.659912 28.571112 22.685953 28.598246 22.705444 28.611267 22.724976 28.624289 22.744507 28.613413 22.761902 28.624268 22.7771 28.635122 22.792297 28.665537 22.803122 28.676392 22.816162 28.687246 22.829203 28.687225 22.844482 28.689392 22.855347 28.691559 22.86621 28.689392 22.881348 28.689392 22.881348 28.689392 22.881348 28.715454 22.881348 28.715454 22.881348 28.715454 22.881348 28.702423 22.881348 28.702423 22.881348 28.702423 22.881348 28.702423 22.89441 28.702423 22.89441 28.702423 22.89441 28.689392 22.89441 28.689392 22.89441 28.689392 22.89441 28.702423 22.89441 28.702423 22.89441 28.702423 22.89441 28.695923 22.89441 28.695923 22.89441 28.695923 22.89441 28.689413 22.96814 28.695923 22.998535 28.702433 23.02893 28.726303 23.055054 28.734985 23.076782 28.743668 23.09851 28.737162 23.109375 28.748016 23.128906 28.758871 23.148438 28.792511 23.172262 28.80011 23.19397 28.807709 23.215677 28.790354 23.241781 28.79361 23.259155 28.796865 23.27653 28.806616 23.280863 28.819641 23.298218 28.832666 23.315573 28.871765 23.363281 28.871765 23.363281 28.871765 23.363281 28.839203 23.363281 28.839203 23.363281" fill="none" stroke="#000000" stroke-opacity="1.000000" stroke-width="1" stroke-linecap="round" />
<path d="M12.66214 24.008179C12.66866 24.012491 12.681702 24.021118 12.681702 24.021118 12.681702 24.021118 12.63501 24.055868 12.597015 24.073242 12.559021 24.090616 12.541652 24.116678 12.453735 24.125366 12.365819 24.134054 12.145497 24.118856 12.069519 24.125366 11.993541 24.131876 12.024999 24.151407 11.997864 24.164429 11.970729 24.17745 11.940353 24.19047 11.906708 24.203491 11.873062 24.216513 11.836151 24.23169 11.79599 24.242554 11.755829 24.253418 11.7156725 24.255636 11.665741 24.268677 11.615809 24.281717 11.543071 24.303427 11.496399 24.3208 11.449727 24.338175 11.420441 24.359903 11.385712 24.372925 11.350983 24.385946 11.31516 24.392416 11.288025 24.398926 11.26089 24.405436 11.252208 24.407654 11.2229 24.411987 11.193593 24.41632 11.152344 24.42277 11.112183 24.424927 11.0720215 24.427084 11.007985 24.420572 10.981934 24.424927 10.955882 24.429281 10.964559 24.444519 10.955872 24.45105 10.947185 24.45758 10.937408 24.459778 10.92981 24.464111 10.922211 24.468445 10.913533 24.466208 10.910278 24.47705 10.907023 24.487894 10.914617 24.513977 10.910278 24.529175 10.90594 24.544373 10.890758 24.55304 10.884247 24.568237 10.877736 24.583435 10.873387 24.60732 10.871216 24.620361 10.869044 24.633402 10.874471 24.637796 10.871216 24.646484 10.867961 24.655172 10.854939 24.665976 10.851685 24.672485 10.84843 24.678995 10.852773 24.681213 10.851685 24.685547 10.850596 24.68988 10.846242 24.694153 10.845154 24.698486 10.844066 24.70282 10.847321 24.705017 10.845154 24.711548 10.842987 24.718079 10.83432 24.726807 10.832153 24.73767 10.829987 24.748535 10.827815 24.768066 10.832153 24.776733 10.836492 24.7854 10.85493 24.783163 10.858185 24.789673 10.86144 24.796183 10.852768 24.807108 10.851685 24.815796 10.850601 24.824484 10.847346 24.830954 10.851685 24.841797 10.856023 24.85264 10.873378 24.869995 10.877716 24.88086 10.882054 24.891724 10.873372 24.891785 10.877716 24.906982 10.88206 24.92218 10.895096 24.94816 10.903778 24.972046 10.91246 24.995932 10.923299 25.026407 10.92981 25.050293 10.93632 25.074179 10.938497 25.093649 10.942841 25.115356 10.947185 25.137064 10.947189 25.158834 10.955872 25.180542 10.964554 25.20225 10.988423 25.217386 10.994934 25.245605 11.001445 25.273825 10.988419 25.31077 10.994934 25.349854 11.00145 25.388937 11.023168 25.443197 11.034027 25.480103 11.044887 25.517008 11.047063 25.547403 11.060089 25.57129 11.073115 25.595175 11.101334 25.608215 11.112183 25.623413 11.123032 25.63861 11.120845 25.645102 11.125183 25.662476 11.129521 25.67985 11.131699 25.70813 11.138214 25.727661 11.14473 25.747192 11.147995 25.755777 11.164276 25.779663 11.180557 25.803549 11.217448 25.834045 11.235901 25.870972 11.254354 25.907898 11.259796 25.956726 11.274994 26.00122 11.290192 26.045715 11.307551 26.090189 11.327087 26.13794 11.346623 26.18569 11.352051 26.21932 11.392212 26.28772 11.432373 26.35612 11.518127 26.463663 11.568054 26.54834 11.617981 26.633017 11.653783 26.728476 11.691772 26.795776 11.729762 26.863077 11.768849 26.906555 11.79599 26.952148 11.823131 26.997742 11.831822 27.030273 11.854614 27.069336 11.877406 27.108398 11.900177 27.138754 11.932739 27.186523 11.9653015 27.234293 12.019592 27.316874 12.049988 27.355957 12.080383 27.39504 12.095576 27.392801 12.115112 27.42102 12.134648 27.44924 12.146586 27.492697 12.167206 27.525269 12.187825 27.55784 12.218211 27.588236 12.238831 27.616455 12.25945 27.644674 12.267044 27.66636 12.290924 27.69458 12.314804 27.7228 12.357142 27.759705 12.382111 27.785767 12.407079 27.811829 12.4157715 27.829245 12.440735 27.850952 12.465698 27.87266 12.504756 27.894308 12.531891 27.916016 12.559026 27.937723 12.582921 27.961649 12.603546 27.981201 12.624171 28.000753 12.636104 28.015951 12.65564 28.033325 12.675176 28.0507 12.696884 28.065918 12.720764 28.08545 12.744644 28.10498 12.773956 28.133158 12.79892 28.150513 12.823883 28.167868 12.845581 28.176554 12.870544 28.189575 12.895508 28.202597 12.926991 28.21344 12.9487 28.228638 12.970408 28.243835 12.983429 28.265564 13.000793 28.280762 13.018158 28.29596 13.03009 28.30896 13.052887 28.319824 13.075684 28.330688 13.116948 28.335083 13.137573 28.345947 13.158198 28.356812 13.159271 28.374166 13.176636 28.38501 13.194 28.395853 13.221135 28.400167 13.24176 28.41101 13.262385 28.421854 13.263478 28.434875 13.3003845 28.450073 13.337291 28.465271 13.403499 28.473959 13.463196 28.502197 13.522893 28.530436 13.597789 28.586935 13.658569 28.619507 13.71935 28.652079 13.782292 28.673746 13.827881 28.697632 13.873469 28.721518 13.893021 28.743286 13.932098 28.762817 13.971176 28.782349 14.017848 28.799622 14.062347 28.81482 14.106847 28.830017 14.160024 28.845316 14.199097 28.854004 14.23817 28.862692 14.255539 28.86261 14.296783 28.866943 14.338028 28.871277 14.356476 28.877829 14.446564 28.880005 14.536652 28.882181 14.7331085 28.875671 14.837311 28.880005 14.941513 28.884338 15.003392 28.901672 15.071777 28.906006 15.140162 28.91034 15.182495 28.899475 15.24762 28.906006 15.312744 28.912537 15.363754 28.934326 15.462524 28.94519 15.561295 28.956055 15.734955 28.966858 15.8402405 28.971191 15.945526 28.975525 16.023687 28.975525 16.094238 28.971191 16.16479 28.966858 16.198425 28.95278 16.26355 28.94519 16.328674 28.937601 16.415518 28.936523 16.484985 28.92566 16.554453 28.914795 16.62609 28.898478 16.680359 28.880005 16.734629 28.861532 16.760681 28.833273 16.810608 28.81482 16.860535 28.796366 16.921305 28.788818 16.97992 28.769287 17.038534 28.749756 17.11019 28.720438 17.162292 28.697632 17.214396 28.674826 17.250214 28.659586 17.292542 28.632446 17.33487 28.605307 17.37176 28.580362 17.41626 28.53479 17.46076 28.489218 17.516123 28.420877 17.55954 28.359009 17.602957 28.29714 17.636597 28.220032 17.676758 28.163574 17.716919 28.107117 17.750574 28.076721 17.800507 28.020264 17.85044 27.963806 17.929678 27.883444 17.976349 27.82483 18.02302 27.766214 18.041464 27.717428 18.080536 27.66858 18.119608 27.61973 18.165197 27.59253 18.210785 27.531738 18.256372 27.470947 18.314987 27.386332 18.354065 27.303833 18.393143 27.221334 18.41269 27.135538 18.445251 27.036743 18.477814 26.937948 18.516876 26.828287 18.549438 26.71106 18.582 26.593832 18.612402 26.47882 18.640625 26.333374 18.668848 26.187927 18.705755 25.96757 18.71878 25.838379 18.731806 25.709188 18.720953 25.635315 18.71878 25.558228 18.716608 25.48114 18.711176 25.436646 18.70575 25.375854 18.700323 25.315063 18.69599 25.265116 18.686218 25.193481 18.676447 25.121847 18.662323 25.015503 18.647125 24.946045 18.631927 24.876587 18.617823 24.842957 18.595032 24.776733 18.57224 24.71051 18.537512 24.611673 18.510376 24.548706 18.48324 24.485739 18.455017 24.43801 18.43222 24.398926 18.409424 24.359842 18.40833 24.33374 18.373596 24.314209 18.338861 24.294678 18.256378 24.281738 18.223816 24.281738 18.191254 24.281738 18.178223 24.314209 18.178223 24.314209" fill="none" stroke="#000000" stroke-opacity="1.000000" stroke-width="1" stroke-linecap="round" />
<path d="M10.519531 24.503174C10.502167 24.503174 10.477203 24.50535 10.467438 24.503174 10.457672 24.500998 10.468536 24.495544 10.4609375 24.490112 10.453339 24.48468 10.433787 24.47709 10.4218445 24.470581 10.409902 24.464071 10.407735 24.46517 10.389282 24.45105 10.37083 24.43693 10.341517 24.403238 10.311127 24.385864 10.280736 24.36849 10.246013 24.36851 10.20694 24.346802 10.167867 24.325094 10.129878 24.287088 10.076691 24.255615 10.023503 24.224142 9.964885 24.201376 9.887817 24.157959 9.81075 24.114542 9.681584 24.032022 9.614288 23.995117 9.546992 23.958212 9.561101 23.965841 9.484039 23.936523 9.406978 23.907206 9.246348 23.848532 9.1519165 23.819214 9.057485 23.789896 9.02708 23.78884 8.91745 23.76062 8.80782 23.7324 8.6471815 23.674866 8.494141 23.649902 8.3411 23.624939 8.166362 23.606506 7.9992065 23.61084 7.8320518 23.615173 7.6279755 23.66506 7.491211 23.675903 7.3544464 23.686747 7.265452 23.67916 7.1786194 23.675903 7.091787 23.672647 7.0440216 23.659628 6.970215 23.656372 6.896408 23.653116 6.786789 23.654196 6.735779 23.656372 6.6847687 23.658548 6.6923776 23.65857 6.664154 23.669434 6.6359305 23.680298 6.5946603 23.702005 6.566437 23.721558 6.5382133 23.74111 6.5197754 23.762857 6.494812 23.786743 6.4698486 23.810629 6.4405365 23.838827 6.4166565 23.864868 6.3927765 23.89091 6.375412 23.906088 6.351532 23.942993 6.327652 23.979898 6.3102775 24.025513 6.2733765 24.086304 6.2364755 24.147095 6.17571 24.249125 6.130127 24.30774 6.0845437 24.366354 6.055237 24.377197 5.999878 24.437988 5.944519 24.49878 5.854421 24.599752 5.7979736 24.672485 5.741526 24.745218 5.733917 24.791891 5.661194 24.87439 5.5884705 24.956888 5.488627 25.063272 5.3616333 25.16748 5.2346396 25.271688 5.0338235 25.387817 4.899231 25.499634 4.7646384 25.61145 4.6561074 25.736328 4.554077 25.838379 4.452047 25.94043 4.349996 26.038126 4.2870483 26.111938 4.2241006 26.185751 4.208954 26.240011 4.1763916 26.28125 4.1438293 26.322489 4.113383 26.324646 4.091675 26.359375 4.069967 26.394104 4.0884705 26.439676 4.0461426 26.489624 4.0038147 26.539572 3.8843892 26.60911 3.8377075 26.659058 3.7910259 26.709005 3.805125 26.741556 3.7660522 26.789307 3.7269795 26.837057 3.6380005 26.90214 3.6032715 26.945557 3.5685425 26.988974 3.5848186 27.008545 3.5576782 27.049805 3.5305378 27.091064 3.4773357 27.151876 3.4404297 27.193115 3.4035237 27.234354 3.361206 27.269022 3.3362427 27.297241 3.3112793 27.32546 3.3069255 27.340698 3.2906494 27.362427 3.2743733 27.384155 3.259206 27.40155 3.2385864 27.427612 3.2179668 27.453674 3.187561 27.486246 3.1669312 27.518799 3.1463013 27.551352 3.1267498 27.58602 3.1148071 27.622925 3.1028645 27.65983 3.111552 27.671835 3.0952759 27.740234 3.0789998 27.808634 3.0377705 27.95408 3.0171509 28.033325 2.9965312 28.11257 2.9791565 28.148397 2.9715576 28.215698 2.9639587 28.282999 2.9672139 28.34379 2.9715576 28.437134 2.9759014 28.530478 2.963969 28.628134 2.9976196 28.775757 3.0312703 28.92338 3.125702 29.18392 3.173462 29.322876 3.221222 29.461832 3.2527058 29.523743 3.2841797 29.609497 3.3156536 29.695251 3.3395183 29.748392 3.3623047 29.837402 3.385091 29.926413 3.3937683 30.026306 3.4208984 30.143555 3.4480286 30.260803 3.5012004 30.412802 3.5250854 30.540894 3.5489705 30.668985 3.5446675 30.785116 3.564209 30.91211 3.5837505 31.039103 3.6206257 31.172586 3.642334 31.302856 3.6640422 31.433126 3.6792603 31.577555 3.694458 31.693726 3.7096558 31.809896 3.7107341 31.905436 3.7335205 31.999878 3.756307 32.09432 3.8127239 32.201763 3.8311768 32.260376 3.8496296 32.31899 3.8442383 32.351562 3.8442383 32.351562" fill="none" stroke="#000000" stroke-opacity="1.000000" stroke-width="1" stroke-linecap="round" />
<path d="M18.386627 23.662964C18.38446 23.67163 18.379038 23.682455 18.380127 23.688965 18.381216 23.695475 18.369278 23.695517 18.393158 23.702026 18.417038 23.708536 18.468054 23.728027 18.523407 23.728027 18.57876 23.728027 18.648218 23.724813 18.72528 23.702026 18.802343 23.67924 18.887003 23.629313 18.985779 23.591309 19.084555 23.553305 19.215902 23.519592 19.317932 23.473999 19.419962 23.428406 19.504618 23.3655 19.597961 23.317749 19.691305 23.269999 19.788986 23.221151 19.87799 23.1875 19.966995 23.153849 20.039728 23.13865 20.131989 23.115845 20.224249 23.093039 20.317581 23.075623 20.43155 23.05066 20.545517 23.025696 20.672522 23.012735 20.815796 22.966064 20.95907 22.919394 21.13707 22.830343 21.291199 22.77063 21.445328 22.710917 21.632029 22.650126 21.74057 22.607788 21.849112 22.56545 21.865381 22.54482 21.942444 22.516602 22.019506 22.488382 22.123703 22.45585 22.202942 22.438477 22.28218 22.421103 22.352747 22.425394 22.417877 22.412354 22.483007 22.399313 22.50797 22.371073 22.59372 22.36023 22.679468 22.349386 22.832514 22.349447 22.932373 22.34729 23.032232 22.345133 23.135345 22.345133 23.192871 22.34729 23.250397 22.349447 23.242798 22.351542 23.277527 22.36023 23.312256 22.368917 23.364344 22.38204 23.401245 22.399414 23.438147 22.416788 23.456598 22.426493 23.498932 22.464478 23.541265 22.502462 23.617254 22.57847 23.655243 22.62732 23.693232 22.676168 23.670425 22.693521 23.726868 22.757568 23.78331 22.821615 23.9266 22.945374 23.993896 23.011597 24.061193 23.07782 24.062265 23.094116 24.130646 23.154907 24.199026 23.215698 24.331451 23.307962 24.404175 23.376343 24.476898 23.444723 24.504028 23.498962 24.566986 23.565186 24.629944 23.631409 24.702682 23.69985 24.781921 23.773682 24.86116 23.847513 24.963186 23.935446 25.04242 24.008179 25.121653 24.080912 25.177008 24.122171 25.257324 24.210083 25.33764 24.297995 25.415781 24.418417 25.524323 24.535645 25.632864 24.652872 25.800024 24.804892 25.90857 24.913452 26.017115 25.022013 26.101791 25.103415 26.175598 25.187012 26.249405 25.270609 26.29714 25.34556 26.35141 25.41504 26.40568 25.484518 26.462143 25.54419 26.50122 25.603882 26.540298 25.663574 26.556574 25.7276 26.585876 25.773193 26.61518 25.818787 26.647726 25.829672 26.677032 25.877441 26.706339 25.92521 26.738922 26.014221 26.761719 26.059814 26.784515 26.105408 26.79862 26.129293 26.813812 26.151001 26.829004 26.172709 26.837683 26.170532 26.852875 26.190063 26.868067 26.209595 26.894114 26.24648 26.904968 26.268188 26.915823 26.289896 26.915827 26.305115 26.918 26.320312 26.920172 26.33551 26.909317 26.33549 26.918 26.359375 26.926682 26.38326 26.954895 26.41152 26.970093 26.463623 26.98529 26.515726 26.993988 26.589499 27.009186 26.671997 27.024384 26.754496 27.050425 26.867432 27.06128 26.958618 27.072134 27.049805 27.071054 27.143127 27.07431 27.219116 27.077566 27.295105 27.082983 27.31901 27.08081 27.41455 27.078638 27.510092 27.069962 27.657755 27.06128 27.792358 27.052597 27.926962 27.042826 28.099508 27.028717 28.222168 27.014608 28.344828 26.987478 28.382853 26.976624 28.52832 26.965769 28.673788 26.980963 28.8974 26.963593 29.09497 26.946222 29.292542 26.89086 29.537903 26.872406 29.713745 26.853952 29.889587 26.86264 30.023031 26.852875 30.150024 26.84311 30.277018 26.821405 30.380167 26.813812 30.475708 26.80622 30.571249 26.809484 30.63859 26.807312 30.723267 26.80514 30.807943 26.80947 30.884989 26.800781 30.983765 26.792093 31.08254 26.76387 31.227987 26.755188 31.315918 26.746506 31.403849 26.749771 31.457071 26.748688 31.511353 26.747604 31.565634 26.747604 31.598185 26.748688 31.641602 26.749771 31.685019 26.755188 31.77185 26.755188 31.77185 26.755188 31.77185 26.739996 31.756653 26.735657 31.77185 26.731318 31.787048 26.729156 31.863037 26.729156 31.863037" fill="none" stroke="#000000" stroke-opacity="1.000000" stroke-width="1" stroke-linecap="round" />
<path d="M2.9910889 24.802734C2.9910889 24.828775 2.9986877 24.847208 2.9910889 24.88086 2.98349 24.91451 2.9552612 24.950357 2.9454956 25.004639 2.93573 25.05892 2.9455159 25.147928 2.932495 25.206543 2.9194744 25.265158 2.884735 25.303122 2.8673706 25.356323 2.850006 25.409525 2.8348186 25.48232 2.828308 25.525757 2.8217976 25.569193 2.8337402 25.582214 2.828308 25.616943 2.822876 25.651672 2.8033142 25.692892 2.7957153 25.73413 2.7881165 25.77537 2.791402 25.81661 2.7827148 25.86438 2.7740276 25.91215 2.7522786 25.96755 2.7435913 26.020752 2.734904 26.073954 2.739268 26.122803 2.7305908 26.183594 2.7219136 26.244385 2.7023823 26.31604 2.6915283 26.385498 2.6806743 26.454956 2.6752422 26.52653 2.6654663 26.600342 2.6556904 26.674154 2.6491597 26.749125 2.6328735 26.82837 2.6165874 26.907614 2.5807698 26.986795 2.567749 27.075806 2.5547283 27.164816 2.569936 27.245178 2.5547485 27.362427 2.539561 27.479675 2.5026753 27.628397 2.4766235 27.779297 2.4505718 27.930197 2.428833 28.131042 2.3984375 28.267822 2.368042 28.404602 2.3203022 28.477316 2.2942505 28.599976 2.2681987 28.722635 2.2768555 28.84314 2.2421265 29.003784 2.2073975 29.164429 2.1216938 29.42924 2.0858765 29.563843 2.050059 29.698446 2.0402527 29.726725 2.0272217 29.811401 2.0141907 29.896078 2.0239666 29.95575 2.0076904 30.0719 1.9914144 30.18805 1.9566956 30.388895 1.9295654 30.5083 1.9024353 30.627707 1.8742167 30.690634 1.8449097 30.78833 1.8156027 30.886026 1.7917175 30.957703 1.7537231 31.094482 1.7157288 31.231262 1.656016 31.481995 1.6169434 31.609009 1.5778707 31.736023 1.543162 31.778402 1.5192871 31.856567 1.4954122 31.934732 1.4910685 32.025898 1.4736938 32.078003 1.4563192 32.130108 1.4248148 32.14966 1.4150391 32.16919 1.4052633 32.18872 1.4172058 32.18868 1.4150391 32.19519 1.4128723 32.201702 1.4020386 32.208252 1.4020386 32.208252" fill="none" stroke="#000000" stroke-opacity="1.000000" stroke-width="1" stroke-linecap="round" />
<path d="M28.832672 23.031128C28.832672 23.039835 28.818558 23.033365 28.832672 23.057251 28.846786 23.081137 28.875025 23.087606 28.917358 23.174438 28.959692 23.26127 29.037827 23.45341 29.08667 23.578247 29.135513 23.703085 29.163748 23.78776 29.210419 23.923462 29.25709 24.059164 29.310263 24.209005 29.3667 24.392456 29.423136 24.575907 29.49911 24.843973 29.549042 25.02417 29.598974 25.204367 29.612015 25.281494 29.66629 25.473633 29.720566 25.665771 29.822596 25.982687 29.874695 26.177002 29.926794 26.371317 29.94198 26.47994 29.978882 26.639526 30.015783 26.799112 30.061365 26.964111 30.0961 27.134521 30.130835 27.304932 30.159063 27.47638 30.187286 27.661987 30.21551 27.847595 30.224197 28.015848 30.265442 28.248169 30.306686 28.48049 30.387 28.823587 30.434753 29.055908 30.482508 29.288229 30.517237 29.45756 30.551971 29.64209 30.586706 29.82662 30.617105 29.998087 30.643158 30.163086 30.66921 30.328085 30.680063 30.490967 30.708282 30.63208 30.736502 30.773193 30.78859 30.889282 30.81247 31.009766 30.83635 31.130249 30.834192 31.24642 30.851562 31.35498 30.868933 31.463541 30.905832 31.556906 30.916687 31.661133 30.927542 31.76536 30.914515 31.877218 30.916687 31.980347 30.91886 32.083477 30.927546 32.186565 30.929718 32.279907 30.93189 32.37325 30.927551 32.461163 30.929718 32.540405 30.931885 32.619648 30.934036 32.691326 30.942719 32.75537 30.9514 32.819416 30.975296 32.887775 30.981812 32.924683 30.988327 32.96159 30.97964 32.96161 30.981812 32.976807 30.983984 32.992004 30.994843 33.01587 30.994843 33.01587" fill="none" stroke="#000000" stroke-opacity="1.000000" stroke-width="1" stroke-linecap="round" />
</svg>